<?xml version="1.0" encoding="UTF-8" standalone="no"?>
<!DOCTYPE svg PUBLIC "-//W3C//DTD SVG 1.1//EN" "http://www.w3.org/Graphics/SVG/1.1/DTD/svg11.dtd">
<svg xmlns="http://www.w3.org/2000/svg" xmlns:xl="http://www.w3.org/1999/xlink" version="1.1" viewBox="72 288 203 252" width="203pt" height="21pc" xmlns:dc="http://purl.org/dc/elements/1.1/"><metadata> Produced by OmniGraffle 6.6.2 <dc:date>2017-12-26 10:14:27 +0000</dc:date></metadata><defs/><g stroke="none" stroke-opacity="1" stroke-dasharray="none" fill="none" fill-opacity="1"><title>Canvas 1</title><g><title>Layer 1</title><path d="M 243.26992 346.6155 C 243.26992 346.6155 242.21378 345.73539 243.1819 342.655 C 244.15003 339.5746 245.55821 338.0784 247.67048 336.84625 C 249.78275 335.6141 253.39121 334.0299 255.76752 334.29392 C 258.14382 334.55796 262.36836 335.96614 264.83268 336.93426 C 267.297 337.90239 271.60955 341.42284 273.01773 344.76726 C 274.4259 348.1117 274.77795 350.39999 274.4259 351.3681 C 274.07386 352.33623 272.48966 354.00845 271.87358 355.59265 C 271.2575 357.17685 269.23324 360.6973 269.23324 360.6973 C 269.23324 360.6973 269.6733 361.31338 269.32125 361.92946 C 268.9692 362.54554 268.26512 362.80957 267.91307 363.42565 C 267.56103 364.04173 266.94495 365.44991 266.41688 365.80196 C 265.88881 366.154 263.51251 367.12213 262.89643 367.21014 C 262.28035 367.29815 262.6324 367.91423 261.66427 368.70633 C 260.69615 369.49843 259.90405 372.05076 259.90405 372.05076 C 259.90405 372.05076 261.1362 372.66684 261.31223 373.81098 C 261.48825 374.95513 260.96018 373.72297 260.52013 376.97939 C 260.08007 380.2358 259.99206 382.78813 260.25609 383.49222 C 260.52013 384.1963 262.10433 385.6045 263.51251 388.50886 C 264.92069 391.41323 267.03296 397.75005 266.94495 398.71817 C 266.85694 399.6863 264.2166 405.40703 262.89643 407.87134 C 261.57626 410.33566 260.78416 413.32804 259.37598 415.70434 C 257.9678 418.08065 257.79178 420.19292 255.15144 422.56922 C 252.5111 424.94553 251.19093 425.91365 249.51872 428.02592 C 247.8465 430.1382 246.79037 432.25046 246.2623 432.86654 C 245.73423 433.48262 244.06202 433.3066 242.03776 434.27472 C 240.0135 435.24284 236.75708 438.67528 235.61294 438.49926 C 234.46879 438.32324 234.5568 438.23523 234.20476 436.65102 C 233.85271 435.06682 233.94072 434.1867 232.62056 434.53875 C 231.30039 434.8908 228.308 436.387 227.16386 436.387 C 226.01971 436.387 225.49164 436.12296 224.96358 435.06682 C 224.43551 434.01069 224.96358 432.69052 224.61153 431.45836 C 224.25949 430.2262 224.61153 429.25808 223.37937 428.28995 C 222.14722 427.32183 221.88318 427.58586 221.53114 426.17768 C 221.17909 424.7695 221.44313 423.62536 221.09108 422.92127 C 220.73903 422.21718 220.73903 421.6891 220.03494 421.6891 C 219.33085 421.6891 217.39461 423.00928 214.57825 423.44933 C 211.76189 423.8894 204.98502 422.83326 204.98502 422.83326 C 204.98502 422.83326 204.28093 424.6815 207.53735 427.49785 C 210.79376 430.3142 215.10631 433.3946 218.27472 435.41887 C 221.44313 437.44313 227.42789 441.31562 229.98022 443.33988 C 232.53254 445.36414 236.75708 449.14862 236.75708 449.14862 L 235.3489 450.02874 C 235.3489 450.02874 230.77426 451.7462 228.75 450.25 C 226.72574 448.7538 218.20028 442.4962 216 441 C 213.79972 439.5038 208.0842 435.21812 206.5 434.25 C 204.9158 433.28188 202.04877 429.51189 200.02451 427.39962 C 198.00025 425.28735 198.12014 421.86513 198.12014 421.86513 L 193.27952 423.0973 C 193.27952 423.0973 193.01549 423.44933 191.69532 422.3052 C 190.37515 421.16104 190.63918 420.0169 190.63918 420.0169 C 190.63918 420.0169 191.5193 422.83326 191.60731 425.38558 C 191.69532 427.9379 191.07924 428.28995 190.19913 429.69813 C 189.31901 431.10631 188.70294 432.33847 188.70294 432.33847 C 188.70294 432.33847 189.58305 432.5145 187.20674 432.07444 C 184.83044 431.63438 184.56641 431.7224 184.56641 431.7224 C 184.56641 431.7224 184.65442 432.77853 185.00646 436.563 C 185.35851 440.3475 184.74243 439.81943 184.65442 443.25187 C 184.56641 446.6843 185.71055 446.5963 185.79856 449.0606 C 185.88657 451.52493 186.67868 452.8451 186.8547 455.57345 C 187.03072 458.3018 187.29475 461.20617 186.23862 465.07866 C 185.18248 468.95116 181.48601 477.40024 181.48601 477.40024 C 181.48601 477.40024 182.54215 479.24848 182.54215 480.74467 C 182.54215 482.24086 181.75005 482.94495 181.398 485.14523 C 181.04596 487.3455 180.78192 490.68994 180.51789 493.77033 C 180.25385 496.85073 179.63778 497.73084 179.54976 500.5472 C 179.46175 503.36356 181.13397 507.06003 181.13397 509.9644 C 181.13397 512.86878 180.69391 520.8778 180.69391 520.8778 C 180.69391 520.8778 178.75766 520.7898 177.08545 520.70178 C 175.41323 520.61377 174.62113 521.14184 174.62113 521.14184 C 174.62113 521.14184 173.82903 525.27837 175.76528 528.18274 C 177.70153 531.0871 187.47078 532.93535 190.8152 533.4634 C 194.15963 533.99148 194.95173 534.43154 195.83185 534.34353 C 196.71196 534.2555 197.68008 535.39966 197.7681 535.83972 C 197.85611 536.27977 196.71196 537.3359 196.18389 537.3359 C 195.65582 537.3359 193.71958 537.51193 192.83946 537.3359 C 191.95935 537.1599 189.14299 539.36017 186.8547 539.27216 C 184.56641 539.18415 179.46175 538.21602 176.11732 538.21602 C 172.7729 538.21602 168.81239 540.24028 165.02791 539.97625 C 161.24342 539.7122 158.7791 536.80784 159.57121 534.1675 C 160.36331 531.52717 161.77149 528.53478 162.03552 526.4225 C 162.29956 524.31024 162.38757 520.7898 161.24342 519.73366 C 160.09927 518.67752 153.93849 517.44536 152.70633 516.56525 C 151.47417 515.68514 153.32241 512.2527 153.32241 510.05242 C 153.32241 507.85214 151.82622 505.56384 151.82622 501.95538 C 151.82622 498.34692 154.20252 492.89022 154.64258 488.48966 C 155.08263 484.0891 155.52269 480.9207 155.69871 478.6324 C 155.87473 476.3441 158.07502 461.5582 158.07502 457.77373 C 158.07502 453.98924 156.57882 437.44313 156.05076 434.01069 C 155.52269 430.57825 153.146385 403.6468 152.26627 399.59828 C 151.38616 395.54976 151.91423 394.40562 150.33002 390.88517 C 148.74582 387.36472 138.62453 375.65922 136.0722 372.13877 C 133.51987 368.61832 129.73539 363.60168 128.59124 361.31338 C 127.447096 359.0251 125.77488 357.96895 122.7825 353.83242 C 119.790116 349.6959 117.14978 349.43186 113.365294 345.8234 C 109.58081 342.21494 110.19689 342.39096 108.87672 340.63074 C 107.55655 338.87051 106.85246 339.04653 105.180246 336.75824 C 103.50803 334.46995 102.09985 331.12552 100.867694 328.30916 C 99.635537 325.4928 91.186455 314.93145 90.570377 313.7873 C 89.9543 312.64315 89.9543 313.34724 88.63413 311.67503 C 87.31396 310.00282 86.169813 308.15458 86.169813 308.15458 C 86.169813 308.15458 86.78589 307.80253 84.849644 306.39435 C 82.913397 304.98617 80.97715 304.89816 80.97715 304.89816 C 80.97715 304.89816 79.833002 305.60225 79.74499 305.60225 C 79.65698 305.60225 77.72073 305.1622 77.72073 305.1622 L 76.576586 304.19407 L 75.960507 301.99379 L 75.696473 300.93766 L 74.464315 300.32158 C 74.464315 300.32158 73.49619 300.05754 73.40818 299.88152 C 73.32017 299.7055 73.32017 299.7055 73.32017 299.7055 L 73.32017 297.3292 L 72.880113 296.36107 L 72.176023 295.30493 L 72 292.6646 C 72 292.6646 73.056135 291.25642 73.144146 291.25642 C 73.232158 291.25642 74.464315 289.76023 74.464315 289.76023 L 75.784484 288.26403 L 77.01664 288 C 77.01664 288 77.896755 288.88011 78.2488 289.05614 C 78.600845 289.23216 80.44908 290.20028 80.625104 290.3763 C 80.801126 290.55233 82.38533 292.04852 82.56135 292.13653 C 82.737374 292.22454 84.4976 293.80874 84.4976 293.80874 L 86.345836 294.33681 L 87.93004 295.48096 L 89.778275 297.68124 L 91.010433 299.79351 L 91.802534 300.4976 L 93.03469 300.32158 L 94.88293 298.73737 L 97.435255 296.97715 L 99.635537 295.21692 L 101.043717 293.98477 L 102.71593 294.2488 L 105.180246 296.6251 L 107.204505 299.26544 L 109.228764 301.90578 L 110.81297 305.33822 L 111.957114 309.29873 C 111.957114 309.29873 112.30916 312.37912 112.48518 312.55514 C 112.661204 312.73116 113.80535 314.5794 113.80535 314.5794 L 117.06177 316.33963 L 119.35006 318.5399 C 119.35006 318.5399 122.25443 320.12411 122.34244 320.30013 C 122.430454 320.47616 124.89477 321.5323 125.07079 321.70831 C 125.246814 321.88434 129.55937 326.10888 129.55937 326.10888 L 133.16783 330.50944 L 135.98419 334.73398 L 138.09646 337.90239 L 140.38475 340.98278 L 141.79293 343.62312 L 142.056966 345.55937 C 142.056966 345.55937 146.80957 348.81578 147.07361 348.9038 C 147.33764 348.9918 150.9461 351.45612 151.65019 351.80817 C 152.35428 352.16021 157.1949 356.12072 157.81098 356.47276 C 158.42706 356.8248 164.58785 361.04935 164.58785 361.04935 C 164.58785 361.04935 170.22057 364.39378 170.22057 364.30577 C 170.22057 364.21775 174.88517 367.03411 174.88517 367.03411 L 175.9413 366.50605 C 175.9413 366.50605 180.6059 366.154 180.6059 366.066 C 180.6059 365.97798 181.30999 365.3619 181.30999 365.3619 L 181.92607 364.04173 C 181.92607 364.04173 182.9822 361.57742 183.07021 361.4894 C 183.15823 361.4014 184.21436 358.84907 184.21436 358.84907 C 184.21436 358.84907 184.91845 357.26486 185.00646 357.26486 C 185.09447 357.26486 187.29475 355.1526 187.29475 355.1526 C 187.29475 355.1526 189.231 354.00845 189.40703 353.83242 C 189.58305 353.6564 191.16725 353.39237 191.16725 353.39237 C 191.16725 353.39237 190.72719 354.53652 192.22339 353.21635 C 193.71958 351.89618 193.01549 352.7763 193.71958 351.89618 C 194.42367 351.01606 190.46316 355.06458 193.45554 351.98419 C 196.44793 348.9038 196.44793 348.9918 196.44793 348.9918 L 199.00025 349.7839 L 201.11252 349.6959 L 204.54496 349.43186 L 208.41746 350.31197 C 208.41746 350.31197 211.58586 350.75203 212.11393 350.92805 C 212.642 351.10408 215.89842 351.01606 215.89842 351.01606 L 218.97881 351.19209 C 218.97881 351.19209 222.67528 351.19209 222.7633 351.19209 C 222.8513 351.19209 225.66767 351.3681 225.75568 351.45612 C 225.84369 351.54413 228.57204 351.89618 228.57204 351.89618 L 230.77232 352.16021 L 233.32465 353.12833 C 233.32465 353.12833 231.21238 351.45612 233.41266 353.12833 C 235.61294 354.80055 236.22902 356.12072 236.22902 356.12072 L 238.16527 356.56077 L 239.92549 356.91282 L 240.54157 355.85668 L 241.5097 353.12833 L 241.42168 352.24822 L 242.47782 350.22396 L 242.65384 348.63976 Z" fill="#3e97d1"/></g></g></svg>
